<svg width="64" height="48" viewBox="0 0 64 48" fill="none" xmlns="http://www.w3.org/2000/svg">
<path d="M23.3665 32.3173L21.1443 22.3173C20.728 20.4438 22.1536 18.6665 24.0729 18.6665H37.9265C39.8457 18.6665 41.2714 20.4438 40.8551 22.3173L38.6328 32.3173C38.3278 33.6899 37.1104 34.6665 35.7043 34.6665H26.2951C24.889 34.6665 23.6716 33.6899 23.3665 32.3173Z" stroke="#212806"/>
<path d="M27.3638 21.7779V16.9699C27.3638 14.9615 28.9918 13.3335 31.0001 13.3335C33.0084 13.3335 34.6365 14.9615 34.6365 16.9699V21.7779" stroke="#212806"/>
<path d="M55.1377 18.7549C55.1377 20.236 54.8848 21.3366 54.3789 22.0566C53.873 22.7767 53.0824 23.1367 52.0068 23.1367C50.945 23.1367 50.1589 22.7858 49.6484 22.084C49.138 21.3776 48.8737 20.3249 48.8555 18.9258V17.2373C48.8555 15.7744 49.1084 14.6875 49.6143 13.9766C50.1201 13.2656 50.9131 12.9102 51.9932 12.9102C53.0641 12.9102 53.8525 13.2542 54.3584 13.9424C54.8643 14.626 55.124 15.6833 55.1377 17.1143V18.7549ZM53.873 17.0254C53.873 15.9544 53.7227 15.1751 53.4219 14.6875C53.1211 14.1953 52.6449 13.9492 51.9932 13.9492C51.346 13.9492 50.8743 14.193 50.5781 14.6807C50.2819 15.1683 50.1292 15.918 50.1201 16.9297V18.9531C50.1201 20.0286 50.2751 20.8239 50.585 21.3389C50.8994 21.8493 51.3734 22.1045 52.0068 22.1045C52.6312 22.1045 53.0938 21.863 53.3945 21.3799C53.6999 20.8968 53.8594 20.1357 53.873 19.0967V17.0254Z" fill="#212806"/>
</svg>
